<svg width="20" height="20" viewBox="0 0 20 20" fill="none" xmlns="http://www.w3.org/2000/svg">
<path d="M5.85678 16.5243H2.87495V6.72683H5.94198V16.5243H5.85678ZM4.32327 5.36371C3.38613 5.36371 2.53418 4.59696 2.53418 3.57461C2.53418 2.63747 3.30093 1.78552 4.32327 1.78552C5.26042 1.78552 6.11237 2.55227 6.11237 3.57461C6.11237 4.59696 5.34561 5.36371 4.32327 5.36371ZM17.2729 16.5243H14.2059V11.7534C14.2059 10.6458 14.2059 9.19746 12.6724 9.19746C11.0537 9.19746 10.8833 10.3902 10.8833 11.6681V16.5243H7.81627V6.72683H10.7129V8.08996C11.1389 7.3232 12.076 6.55645 13.6095 6.55645C16.6766 6.55645 17.2729 8.60112 17.2729 11.2422V16.5243Z" fill="#B7AB98"/>
</svg>
