<svg width="20" height="20" viewBox="0 0 20 20" fill="none" xmlns="http://www.w3.org/2000/svg">
<path d="M13.8151 10.4744C13.9018 12.3006 14.6875 13.9447 15.9178 15.1411C17.0125 13.8778 17.7014 12.2548 17.7778 10.4744H13.8151Z" fill="#B7AB98"/>
<path d="M10.4753 9.8099H13.1423C13.229 7.79266 14.1013 5.97679 15.4602 4.65876C14.1575 3.39522 12.4088 2.59031 10.4753 2.5069V9.8099Z" fill="#B7AB98"/>
<path d="M2.50732 10.4744C2.58409 12.2548 3.27269 13.8778 4.36739 15.1411C5.59769 13.945 6.38333 12.3006 6.47007 10.4744H2.50732Z" fill="#B7AB98"/>
<path d="M13.8151 9.81023H17.7778C17.7011 8.02993 17.0125 6.40682 15.9178 5.14362C14.6875 6.34002 13.9015 7.98407 13.8151 9.81023Z" fill="#B7AB98"/>
<path d="M7.14307 9.8099H9.81001V2.5069C7.87653 2.59031 6.12779 3.39522 4.82504 4.65876C6.18395 5.97679 7.05633 7.79266 7.14307 9.8099Z" fill="#B7AB98"/>
<path d="M13.1423 10.4744H10.4753V17.7775C12.4088 17.6944 14.1575 16.8892 15.4602 15.6256C14.1013 14.3076 13.229 12.4918 13.1423 10.4744Z" fill="#B7AB98"/>
<path d="M6.47007 9.81023C6.38333 7.98407 5.59769 6.34002 4.36739 5.14362C3.27269 6.40682 2.58409 8.02993 2.50732 9.81023H6.47007Z" fill="#B7AB98"/>
<path d="M9.81001 10.4744H7.14307C7.05633 12.4918 6.18395 14.3076 4.82504 15.6256C6.12779 16.8892 7.87653 17.6941 9.81001 17.7775V10.4744Z" fill="#B7AB98"/>
</svg>
