<svg width="20" height="20" viewBox="0 0 20 20" fill="none" xmlns="http://www.w3.org/2000/svg">
<path d="M16.0509 9.43994L5.4795 2.83279C5.37948 2.77028 5.26456 2.73569 5.14666 2.73259C5.02876 2.7295 4.91218 2.75801 4.80902 2.81519C4.70586 2.87236 4.6199 2.9561 4.56003 3.05772C4.50017 3.15935 4.4686 3.27514 4.4686 3.39308V16.6074C4.4686 16.7253 4.50017 16.8411 4.56003 16.9427C4.6199 17.0444 4.70586 17.128 4.80902 17.1853C4.91218 17.2424 5.02876 17.2709 5.14666 17.2679C5.26456 17.2648 5.37948 17.2301 5.4795 17.1676L16.0509 10.5605C16.1465 10.5013 16.2254 10.4185 16.2801 10.3203C16.3348 10.222 16.3636 10.1114 16.3636 9.99885C16.3636 9.88644 16.3348 9.77577 16.2801 9.67752C16.2254 9.57919 16.1465 9.49652 16.0509 9.43727V9.43994Z" fill="#B7AB98"/>
</svg>
