<svg width="20" height="20" viewBox="0 0 20 20" fill="none" xmlns="http://www.w3.org/2000/svg">
<path d="M14.2427 2.22211H5.75786C5.29359 2.22211 4.83387 2.31356 4.40494 2.49122C3.97601 2.66889 3.58627 2.92931 3.25799 3.25759C2.59498 3.9206 2.2225 4.81983 2.2225 5.75747V14.2423C2.2225 14.7066 2.31395 15.1663 2.49162 15.5953C2.66929 16.0242 2.9297 16.4139 3.25799 16.7422C3.921 17.4052 4.82023 17.7777 5.75786 17.7777H14.2427C14.707 17.7777 15.1667 17.6862 15.5956 17.5085C16.0246 17.3309 16.4143 17.0704 16.7426 16.7422C17.0708 16.4139 17.3313 16.0242 17.5089 15.5953C17.6866 15.1663 17.7781 14.7066 17.7781 14.2423V5.75747C17.7781 5.29319 17.6866 4.83347 17.5089 4.40454C17.3313 3.97562 17.0708 3.58588 16.7426 3.25759C16.4143 2.92931 16.0246 2.66889 15.5956 2.49122C15.1667 2.31356 14.707 2.22211 14.2427 2.22211ZM5.05079 5.75747C4.91094 5.75747 4.77424 5.716 4.65796 5.6383C4.54169 5.56061 4.45105 5.45017 4.39754 5.32097C4.34402 5.19177 4.33002 5.04961 4.3573 4.91245C4.38459 4.77529 4.45193 4.64931 4.55081 4.55042C4.6497 4.45153 4.77569 4.38419 4.91285 4.35691C5.05 4.32962 5.19217 4.34363 5.32137 4.39715C5.45057 4.45066 5.561 4.54129 5.6387 4.65757C5.71639 4.77384 5.75786 4.91055 5.75786 5.05039C5.75786 5.23792 5.68336 5.41777 5.55076 5.55037C5.41816 5.68297 5.23831 5.75747 5.05079 5.75747ZM10.0003 14.2423C9.16118 14.2423 8.34101 13.9935 7.64332 13.5274C6.94565 13.0612 6.4019 12.3986 6.08079 11.6234C5.75969 10.8482 5.67568 9.99519 5.83938 9.17219C6.00307 8.34927 6.40712 7.59336 7.00044 7.00004C7.59375 6.40672 8.34968 6.00267 9.1726 5.83898C9.99559 5.67528 10.8486 5.7593 11.6238 6.0804C12.399 6.4015 13.0616 6.94526 13.5278 7.64292C13.9939 8.34061 14.2427 9.16086 14.2427 9.99986C14.2427 11.125 13.7958 12.2041 13.0001 12.9998C12.2045 13.7954 11.1254 14.2423 10.0003 14.2423Z" fill="#B7AB98"/>
</svg>
