<svg width="40" height="40" viewBox="0 0 40 40" fill="none" xmlns="http://www.w3.org/2000/svg">
<g clip-path="url(#clip0_1_946)">
<path fill-rule="evenodd" clip-rule="evenodd" d="M33.3827 35.0001C37.4457 31.325 40 26.0013 40 20.0786C40 8.9895 31.0457 0 20 0C8.95431 0 0 8.9895 0 20.0786C0 25.7568 2.34776 30.8844 6.1219 34.5366L13.4973 8.15694L17.1908 16.1267H19.6875H22.1842L25.8777 8.15694L33.3827 35.0001Z" fill="#B7AB98"/>
<path d="M16.3333 24.7218C17.0697 24.7218 17.6666 24.1225 17.6666 23.3833C17.6666 22.644 17.0697 22.0447 16.3333 22.0447C15.5969 22.0447 15 22.644 15 23.3833C15 24.1225 15.5969 24.7218 16.3333 24.7218Z" fill="#B7AB98"/>
<path d="M23.2083 24.7218C23.9447 24.7218 24.5416 24.1225 24.5416 23.3833C24.5416 22.644 23.9447 22.0447 23.2083 22.0447C22.4719 22.0447 21.875 22.644 21.875 23.3833C21.875 24.1225 22.4719 24.7218 23.2083 24.7218Z" fill="#B7AB98"/>
</g>
<defs>
<clipPath id="clip0_1_946">
<rect width="40" height="40" fill="white"/>
</clipPath>
</defs>
</svg>
